<mxfile host="app.diagrams.net" modified="2023-09-05T11:46:26.540Z" agent="Mozilla/5.0 (Windows NT 10.0; Win64; x64; rv:109.0) Gecko/20100101 Firefox/116.0" version="21.7.2" etag="hXChnt-OzL_AwpTUoVZN" type="github">
  <diagram name="PÃ¡gina-1" id="6cImOYo7fVF2NgLIT1CQ">
    <mxGraphModel>
      <root>
        <mxCell id="0" />
        <mxCell id="1" parent="0" />
      </root>
    </mxGraphModel>
  </diagram>
</mxfile>
